<svg width="42" height="39" viewBox="0 0 42 39" fill="none" xmlns="http://www.w3.org/2000/svg">
<ellipse rx="17.1508" ry="16.4897" transform="matrix(-1 0 0 1 24.6334 16.4897)" fill="#C4C4C4"/>
<path d="M4.31216 31.1969L15.4594 28.8629L7.99054 16.4832L4.31216 31.1969Z" fill="#C4C4C4"/>
<ellipse rx="1.83759" ry="2.11406" transform="matrix(-1 0 0 1 31.3712 14.7984)" fill="#E8E8E8"/>
<ellipse rx="1.83759" ry="2.11406" transform="matrix(-1 0 0 1 31.3712 14.7984)" fill="#E8E8E8"/>
<ellipse rx="1.83759" ry="2.11406" transform="matrix(-1 0 0 1 31.3712 14.7984)" fill="#E8E8E8"/>
<ellipse rx="1.83759" ry="2.11406" transform="matrix(-1 0 0 1 31.3712 14.7984)" fill="#E8E8E8"/>
<ellipse rx="1.83759" ry="2.11406" transform="matrix(-1 0 0 1 24.6334 14.7984)" fill="#E8E8E8"/>
<ellipse rx="1.83759" ry="2.11406" transform="matrix(-1 0 0 1 24.6334 14.7984)" fill="#E8E8E8"/>
<ellipse rx="1.83759" ry="2.11406" transform="matrix(-1 0 0 1 24.6334 14.7984)" fill="#E8E8E8"/>
<ellipse rx="1.83759" ry="2.11406" transform="matrix(-1 0 0 1 24.6334 14.7984)" fill="#E8E8E8"/>
<ellipse rx="1.83759" ry="2.11406" transform="matrix(-1 0 0 1 17.8955 14.7984)" fill="#E8E8E8"/>
<ellipse rx="1.83759" ry="2.11406" transform="matrix(-1 0 0 1 17.8955 14.7984)" fill="#E8E8E8"/>
<ellipse rx="1.83759" ry="2.11406" transform="matrix(-1 0 0 1 17.8955 14.7984)" fill="#E8E8E8"/>
<ellipse rx="1.83759" ry="2.11406" transform="matrix(-1 0 0 1 17.8955 14.7984)" fill="#E8E8E8"/>
</svg>
