<svg width="69" height="46" viewBox="0 0 69 46" fill="none" xmlns="http://www.w3.org/2000/svg">
<ellipse cx="28" cy="19.5" rx="28" ry="19.5" fill="#C4C4C4"/>
<path d="M61.1759 36.8921L42.9771 34.132L55.1707 19.4924L61.1759 36.8921Z" fill="#C4C4C4"/>
<ellipse cx="17" cy="17.5" rx="3" ry="2.5" fill="#E8E8E8"/>
<ellipse cx="17" cy="17.5" rx="3" ry="2.5" fill="#E8E8E8"/>
<ellipse cx="17" cy="17.5" rx="3" ry="2.5" fill="#E8E8E8"/>
<ellipse cx="17" cy="17.5" rx="3" ry="2.5" fill="#E8E8E8"/>
<ellipse cx="28" cy="17.5" rx="3" ry="2.5" fill="#E8E8E8"/>
<ellipse cx="28" cy="17.5" rx="3" ry="2.5" fill="#E8E8E8"/>
<ellipse cx="28" cy="17.5" rx="3" ry="2.5" fill="#E8E8E8"/>
<ellipse cx="28" cy="17.5" rx="3" ry="2.5" fill="#E8E8E8"/>
<ellipse cx="39" cy="17.5" rx="3" ry="2.5" fill="#E8E8E8"/>
<ellipse cx="39" cy="17.5" rx="3" ry="2.5" fill="#E8E8E8"/>
<ellipse cx="39" cy="17.5" rx="3" ry="2.5" fill="#E8E8E8"/>
<ellipse cx="39" cy="17.5" rx="3" ry="2.5" fill="#E8E8E8"/>
</svg>
